<mxfile host="app.diagrams.net" modified="2024-07-04T17:06:34.992Z" agent="Mozilla/5.0 (Windows NT 10.0; Win64; x64) AppleWebKit/537.36 (KHTML, like Gecko) Chrome/126.0.0.0 Safari/537.36" etag="DHEbbsANy8ZCrXu0aFJ-" version="24.6.4" type="device">
  <diagram name="Page-1" id="sZp895dcRTAf1WpwZXES">
    <mxGraphModel dx="880" dy="468" grid="1" gridSize="10" guides="1" tooltips="1" connect="1" arrows="1" fold="1" page="1" pageScale="1" pageWidth="850" pageHeight="1100" math="0" shadow="0">
      <root>
        <mxCell id="0" />
        <mxCell id="1" parent="0" />
        <mxCell id="V3rxnWOxauGq9GjZ-Yy0-1" value="" style="whiteSpace=wrap;html=1;aspect=fixed;perimeterSpacing=0;strokeColor=#CCCCCC;arcSize=12;strokeWidth=2;" vertex="1" parent="1">
          <mxGeometry x="80" y="30" width="270" height="270" as="geometry" />
        </mxCell>
        <mxCell id="V3rxnWOxauGq9GjZ-Yy0-2" value="" style="whiteSpace=wrap;html=1;aspect=fixed;strokeWidth=2;strokeColor=#CCCCCC;" vertex="1" parent="1">
          <mxGeometry x="490" y="30" width="270" height="270" as="geometry" />
        </mxCell>
        <mxCell id="V3rxnWOxauGq9GjZ-Yy0-3" value="" style="whiteSpace=wrap;html=1;aspect=fixed;strokeColor=#CCCCCC;strokeWidth=2;" vertex="1" parent="1">
          <mxGeometry x="290" y="309" width="271" height="271" as="geometry" />
        </mxCell>
        <mxCell id="V3rxnWOxauGq9GjZ-Yy0-4" value="" style="rounded=0;whiteSpace=wrap;html=1;strokeColor=#CCCCCC;strokeWidth=2;" vertex="1" parent="1">
          <mxGeometry x="90" y="40" width="250" height="30" as="geometry" />
        </mxCell>
        <mxCell id="V3rxnWOxauGq9GjZ-Yy0-6" value="" style="rounded=0;whiteSpace=wrap;html=1;strokeColor=#CCCCCC;strokeWidth=2;" vertex="1" parent="1">
          <mxGeometry x="300" y="320" width="250" height="30" as="geometry" />
        </mxCell>
        <mxCell id="V3rxnWOxauGq9GjZ-Yy0-7" value="" style="rounded=0;whiteSpace=wrap;html=1;strokeColor=#CCCCCC;strokeWidth=2;" vertex="1" parent="1">
          <mxGeometry x="500" y="40" width="250" height="30" as="geometry" />
        </mxCell>
        <mxCell id="V3rxnWOxauGq9GjZ-Yy0-8" value="" style="rounded=0;whiteSpace=wrap;html=1;strokeColor=#CCCCCC;strokeWidth=2;" vertex="1" parent="1">
          <mxGeometry x="90" y="260" width="250" height="30" as="geometry" />
        </mxCell>
        <mxCell id="V3rxnWOxauGq9GjZ-Yy0-9" value="" style="rounded=0;whiteSpace=wrap;html=1;strokeColor=#CCCCCC;strokeWidth=2;" vertex="1" parent="1">
          <mxGeometry x="500" y="260" width="250" height="30" as="geometry" />
        </mxCell>
        <mxCell id="V3rxnWOxauGq9GjZ-Yy0-10" value="" style="rounded=0;whiteSpace=wrap;html=1;strokeColor=#CCCCCC;strokeWidth=2;" vertex="1" parent="1">
          <mxGeometry x="300" y="540" width="250" height="30" as="geometry" />
        </mxCell>
        <mxCell id="V3rxnWOxauGq9GjZ-Yy0-11" value="" style="rounded=0;whiteSpace=wrap;html=1;strokeWidth=2;strokeColor=#CCCCCC;" vertex="1" parent="1">
          <mxGeometry x="90" y="80" width="40" height="170" as="geometry" />
        </mxCell>
        <mxCell id="V3rxnWOxauGq9GjZ-Yy0-14" value="" style="rounded=0;whiteSpace=wrap;html=1;strokeWidth=2;strokeColor=#CCCCCC;" vertex="1" parent="1">
          <mxGeometry x="500" y="80" width="40" height="170" as="geometry" />
        </mxCell>
        <mxCell id="V3rxnWOxauGq9GjZ-Yy0-15" value="" style="rounded=0;whiteSpace=wrap;html=1;strokeWidth=2;strokeColor=#CCCCCC;" vertex="1" parent="1">
          <mxGeometry x="510" y="359.5" width="40" height="170" as="geometry" />
        </mxCell>
        <mxCell id="V3rxnWOxauGq9GjZ-Yy0-16" value="" style="rounded=0;whiteSpace=wrap;html=1;strokeWidth=2;strokeColor=#CCCCCC;" vertex="1" parent="1">
          <mxGeometry x="300" y="359.5" width="200" height="170" as="geometry" />
        </mxCell>
        <mxCell id="V3rxnWOxauGq9GjZ-Yy0-17" value="" style="rounded=0;whiteSpace=wrap;html=1;strokeColor=#CCCCCC;strokeWidth=2;" vertex="1" parent="1">
          <mxGeometry x="140" y="80" width="200" height="10" as="geometry" />
        </mxCell>
        <mxCell id="V3rxnWOxauGq9GjZ-Yy0-19" value="" style="rounded=0;whiteSpace=wrap;html=1;strokeColor=#CCCCCC;strokeWidth=2;" vertex="1" parent="1">
          <mxGeometry x="140" y="100" width="50" height="40" as="geometry" />
        </mxCell>
        <mxCell id="V3rxnWOxauGq9GjZ-Yy0-20" value="" style="rounded=0;whiteSpace=wrap;html=1;strokeColor=#CCCCCC;strokeWidth=2;" vertex="1" parent="1">
          <mxGeometry x="215" y="100" width="50" height="40" as="geometry" />
        </mxCell>
        <mxCell id="V3rxnWOxauGq9GjZ-Yy0-21" value="" style="rounded=0;whiteSpace=wrap;html=1;strokeColor=#CCCCCC;strokeWidth=2;" vertex="1" parent="1">
          <mxGeometry x="290" y="100" width="50" height="40" as="geometry" />
        </mxCell>
        <mxCell id="V3rxnWOxauGq9GjZ-Yy0-22" value="" style="rounded=0;whiteSpace=wrap;html=1;strokeColor=#CCCCCC;strokeWidth=2;" vertex="1" parent="1">
          <mxGeometry x="140" y="170" width="50" height="40" as="geometry" />
        </mxCell>
        <mxCell id="V3rxnWOxauGq9GjZ-Yy0-23" value="" style="rounded=0;whiteSpace=wrap;html=1;strokeColor=#CCCCCC;strokeWidth=2;" vertex="1" parent="1">
          <mxGeometry x="215" y="170" width="50" height="40" as="geometry" />
        </mxCell>
        <mxCell id="V3rxnWOxauGq9GjZ-Yy0-24" value="" style="rounded=0;whiteSpace=wrap;html=1;strokeColor=#CCCCCC;strokeWidth=2;" vertex="1" parent="1">
          <mxGeometry x="290" y="170" width="50" height="40" as="geometry" />
        </mxCell>
        <mxCell id="V3rxnWOxauGq9GjZ-Yy0-25" value="" style="endArrow=none;html=1;rounded=0;entryX=0.963;entryY=0.741;entryDx=0;entryDy=0;entryPerimeter=0;strokeColor=#CCCCCC;" edge="1" parent="1" target="V3rxnWOxauGq9GjZ-Yy0-1">
          <mxGeometry width="50" height="50" relative="1" as="geometry">
            <mxPoint x="140" y="230" as="sourcePoint" />
            <mxPoint x="195" y="230" as="targetPoint" />
          </mxGeometry>
        </mxCell>
        <mxCell id="V3rxnWOxauGq9GjZ-Yy0-26" value="" style="rounded=0;whiteSpace=wrap;html=1;strokeColor=#CCCCCC;strokeWidth=2;" vertex="1" parent="1">
          <mxGeometry x="550" y="80" width="70" height="60" as="geometry" />
        </mxCell>
        <mxCell id="V3rxnWOxauGq9GjZ-Yy0-27" value="" style="rounded=0;whiteSpace=wrap;html=1;strokeColor=#CCCCCC;strokeWidth=2;" vertex="1" parent="1">
          <mxGeometry x="630" y="80" width="120" height="60" as="geometry" />
        </mxCell>
        <mxCell id="V3rxnWOxauGq9GjZ-Yy0-28" value="" style="rounded=0;whiteSpace=wrap;html=1;strokeColor=#CCCCCC;strokeWidth=2;" vertex="1" parent="1">
          <mxGeometry x="550" y="152" width="200" height="98" as="geometry" />
        </mxCell>
        <mxCell id="V3rxnWOxauGq9GjZ-Yy0-29" value="" style="endArrow=classic;html=1;rounded=0;exitX=1;exitY=1;exitDx=0;exitDy=0;entryX=0.476;entryY=-0.007;entryDx=0;entryDy=0;entryPerimeter=0;strokeColor=#999999;strokeWidth=2;" edge="1" parent="1" source="V3rxnWOxauGq9GjZ-Yy0-24" target="V3rxnWOxauGq9GjZ-Yy0-3">
          <mxGeometry width="50" height="50" relative="1" as="geometry">
            <mxPoint x="375" y="270" as="sourcePoint" />
            <mxPoint x="420" y="290" as="targetPoint" />
          </mxGeometry>
        </mxCell>
        <mxCell id="V3rxnWOxauGq9GjZ-Yy0-30" value="" style="endArrow=classic;html=1;rounded=0;exitX=1;exitY=0.5;exitDx=0;exitDy=0;strokeColor=#999999;strokeWidth=2;entryX=-0.004;entryY=0.093;entryDx=0;entryDy=0;entryPerimeter=0;" edge="1" parent="1" source="V3rxnWOxauGq9GjZ-Yy0-4" target="V3rxnWOxauGq9GjZ-Yy0-2">
          <mxGeometry width="50" height="50" relative="1" as="geometry">
            <mxPoint x="386" y="36.5" as="sourcePoint" />
            <mxPoint x="480" y="90" as="targetPoint" />
          </mxGeometry>
        </mxCell>
        <mxCell id="V3rxnWOxauGq9GjZ-Yy0-31" value="" style="endArrow=classic;html=1;rounded=0;strokeColor=#999999;strokeWidth=2;entryX=0.59;entryY=-0.022;entryDx=0;entryDy=0;entryPerimeter=0;exitX=0.08;exitY=0.99;exitDx=0;exitDy=0;exitPerimeter=0;" edge="1" parent="1" source="V3rxnWOxauGq9GjZ-Yy0-28">
          <mxGeometry width="50" height="50" relative="1" as="geometry">
            <mxPoint x="575.96" y="255" as="sourcePoint" />
            <mxPoint x="449.8899999999999" y="308.038" as="targetPoint" />
          </mxGeometry>
        </mxCell>
        <mxCell id="V3rxnWOxauGq9GjZ-Yy0-34" value="" style="endArrow=classic;html=1;rounded=0;strokeColor=#999999;strokeWidth=2;entryX=0.811;entryY=1.004;entryDx=0;entryDy=0;entryPerimeter=0;exitX=0.08;exitY=0.99;exitDx=0;exitDy=0;exitPerimeter=0;" edge="1" parent="1" target="V3rxnWOxauGq9GjZ-Yy0-1">
          <mxGeometry width="50" height="50" relative="1" as="geometry">
            <mxPoint x="340" y="320" as="sourcePoint" />
            <mxPoint x="223.88999999999987" y="379.038" as="targetPoint" />
          </mxGeometry>
        </mxCell>
      </root>
    </mxGraphModel>
  </diagram>
</mxfile>
